<?xml version="1.0" encoding="utf-8"?>
<svg width="24.158203px" height="28.819824px" viewBox="0 0 24.158203 28.819824" version="1.1" xmlns:xlink="http://www.w3.org/1999/xlink" xmlns="http://www.w3.org/2000/svg">
  <defs>
    <filter id="filter_1">
      <feColorMatrix in="SourceGraphic" type="matrix" values="0 0 0 0 0 0 0 0 0 0 0 0 0 0 0 0 0 0 1 0" color-interpolation-filters="sRGB" />
    </filter>
  </defs>
  <g id="Group-3" filter="url(#filter_1)">
    <path d="M13.7718 3.95228L15.964 4.55567L10.4062 24.7767L8.21391 24.1733L13.7718 3.95228Z" id="Path" fill="#FFFFFF" stroke="none" />
    <path d="M13.6789 4.37754C13.1625 7.25481 15.0747 9.9943 17.9492 10.4923C20.8183 10.9894 23.5586 9.06478 24.074 6.19297C24.5903 3.3157 22.6782 0.576217 19.8036 0.0781952C16.9346 -0.418878 14.1942 1.50574 13.6789 4.37754ZM19.4158 2.32007C21.0464 2.60258 22.1297 4.15468 21.8361 5.79082C21.5415 7.43242 19.9732 8.53391 18.3371 8.25045C16.7065 7.96794 15.6231 6.41584 15.9167 4.77969C16.2113 3.13809 17.7797 2.03661 19.4158 2.32007Z" id="Oval" fill="#FFFFFF" stroke="none" />
    <path d="M0.0841882 22.6269C-0.432149 25.5042 1.48001 28.2437 4.35453 28.7417C7.22356 29.2388 9.96393 27.3141 10.4793 24.4423C10.9956 21.5651 9.08346 18.8256 6.20895 18.3276C3.33991 17.8305 0.599546 19.7551 0.0841882 22.6269ZM5.82107 20.5694C7.45168 20.8519 8.53504 22.404 8.24143 24.0402C7.94684 25.6818 6.37849 26.7833 4.7424 26.4998C3.1118 26.2173 2.02843 24.6652 2.32205 23.0291C2.61664 21.3875 4.18499 20.286 5.82107 20.5694Z" id="Oval-Copy-34" fill="#FFFFFF" stroke="none" />
    <path d="M19.7054 13.2725L19.7054 15.5477L4.45279 15.5477L4.45279 13.2725L19.7054 13.2725Z" id="Path" fill="#FFFFFF" stroke="none" />
  </g>
</svg>