<?xml version="1.0" encoding="UTF-8"?>
<svg width="50px" height="50px" viewBox="0 0 50 50" version="1.1" xmlns="http://www.w3.org/2000/svg" xmlns:xlink="http://www.w3.org/1999/xlink">
    <title>Group 60@3x</title>
    <defs>
        <rect id="path-1" x="0" y="0" width="50" height="50"></rect>
    </defs>
    <g id="V2" stroke="none" stroke-width="1" fill="none" fill-rule="evenodd">
        <g id="Mobile-homepage-v4" transform="translate(-50.000000, -1909.000000)">
            <g id="Group-52" transform="translate(0.000000, 879.000000)">
                <g id="Group-2" transform="translate(0.000000, 992.000000)">
                    <g id="Group-60" transform="translate(50.000000, 38.000000)">
                        <mask id="mask-2" fill="white">
                            <use xlink:href="#path-1"></use>
                        </mask>
                        <g id="Mask"></g>
                        <g mask="url(#mask-2)">
                            <g transform="translate(0.920288, 0.554136)">
                                <g id="Group-12">
                                    <rect id="Rectangle-Copy-15" fill="#58ECCA" transform="translate(11.363636, 11.363636) scale(-1, 1) translate(-11.363636, -11.363636) " x="0" y="0" width="22.7272727" height="22.7272727"></rect>
                                    <polygon id="Rectangle" fill="#9B62FF" points="14.0974026 9.53246753 22.7272727 9.53246753 22.7272727 22.7272727 14.0974026 22.7272727"></polygon>
                                </g>
                                <g id="Group-8" transform="translate(14.558442, 9.532468)">
                                    <circle id="Oval" stroke="#000000" stroke-width="2" cx="16.1563753" cy="11.1033384" r="4.37999628"></circle>
                                    <path d="M27.6826813,30.4675325 C27.6826813,24.1017294 22.5221784,18.9412265 16.1563753,18.9412265 C9.79057229,18.9412265 4.63006932,24.1017294 4.63006932,30.4675325" id="Path" stroke="#000000" stroke-width="2"></path>
                                    <polygon id="Rectangle" stroke="#000000" stroke-width="2" points="-3.06029917e-13 8.67935093e-14 32.3127506 -4.07092617e-12 32.3127506 30.0641118 -3.27211614e-12 30.0641118"></polygon>
                                </g>
                            </g>
                        </g>
                    </g>
                </g>
            </g>
        </g>
    </g>
</svg>