<?xml version="1.0" encoding="UTF-8"?>
<svg width="57px" height="46px" viewBox="0 0 57 46" version="1.1" xmlns="http://www.w3.org/2000/svg" xmlns:xlink="http://www.w3.org/1999/xlink">
    <title>Group 31@3x</title>
    <defs>
        <rect id="path-1" x="0" y="0" width="57" height="46"></rect>
    </defs>
    <g id="Desktop" stroke="none" stroke-width="1" fill="none" fill-rule="evenodd">
        <g id="Homepage-v2---1366-Copy-2" transform="translate(-451.000000, -1802.000000)">
            <g id="Group-43" transform="translate(91.000000, 995.000000)">
                <g id="Group-97" transform="translate(110.000000, 657.000000)">
                    <g id="Group-13" transform="translate(250.000000, 0.000000)">
                        <g id="Group-31" transform="translate(0.000000, 150.000000)">
                            <mask id="mask-2" fill="white">
                                <use xlink:href="#path-1"></use>
                            </mask>
                            <g id="Mask"></g>
                            <g mask="url(#mask-2)">
                                <g transform="translate(2.000000, 0.000000)">
                                    <rect id="Rectangle" fill="#FF5262" transform="translate(25.500000, 12.500000) scale(-1, 1) translate(-25.500000, -12.500000) " x="13" y="0" width="25" height="25"></rect>
                                    <g id="Group-30" stroke-width="1" fill="none" transform="translate(0.000000, 12.500000)">
                                        <line x1="16.2631319" y1="18.0741387" x2="16.2631319" y2="24.8686593" id="Line-5" stroke="#000000" stroke-width="2"></line>
                                        <line x1="9.04395383" y1="25.7179744" x2="23.9069675" y2="25.7179744" id="Line-6" stroke="#000000" stroke-width="2"></line>
                                        <line x1="4.79737848" y1="30.5753425" x2="27.7288853" y2="30.5753425" id="Line-6-Copy" stroke="#000000" stroke-width="2"></line>
                                        <path d="M9.04395383,0 L4.24657534,0 C1.90125654,0 0,1.90125654 0,4.24657534 C0,6.59189414 1.90125654,8.49315068 4.24657534,8.49315068 L7.34532369,8.49315068" id="Path" stroke="#000000" stroke-width="2"></path>
                                        <path d="M32.9509213,0 L28.1535429,0 C25.8082241,0 23.9069675,1.90125654 23.9069675,4.24657534 C23.9069675,6.59189414 25.8082241,8.49315068 28.1535429,8.49315068 L31.3501018,8.49315068" id="Path-Copy" stroke="#000000" stroke-width="2" fill="#8D4CFF" transform="translate(28.428944, 4.246575) scale(-1, 1) translate(-28.428944, -4.246575) "></path>
                                        <rect id="Rectangle" fill="#8D4CFF" x="13" y="0" width="12.5077871" height="12.5"></rect>
                                        <path d="M7.34532369,0 L7.34532369,9.60369982 C7.34532369,14.6191256 11.4111296,18.6849315 16.4265554,18.6849315 C21.4419812,18.6849315 25.5077871,14.6191256 25.5077871,9.60369982 L25.5077871,0 L7.34532369,0 Z" id="Path" stroke="#000000" stroke-width="2"></path>
                                    </g>
                                </g>
                            </g>
                        </g>
                    </g>
                </g>
            </g>
        </g>
    </g>
</svg>