<svg width="57" height="46" viewBox="0 0 57 46" fill="none" xmlns="http://www.w3.org/2000/svg">
<g clip-path="url(#clip0_16008_2)">
<mask id="mask0_16008_2" style="mask-type:luminance" maskUnits="userSpaceOnUse" x="0" y="0" width="57" height="46">
<path d="M0 0H57V46H0V0Z" fill="white"/>
</mask>
<g mask="url(#mask0_16008_2)">
<path fill-rule="evenodd" clip-rule="evenodd" d="M0 0H25V25H0V0Z" fill="#9B62FF"/>
<path d="M12 22C12 18.6863 14.6863 16 18 16H25V25H12V22Z" fill="#FF6775"/>
<path d="M20.9052 23.9913H37.1424" stroke="black" stroke-width="2"/>
<path d="M25.0244 32.6875H20.0245C15.2221 32.6875 11.3274 28.7941 11.3274 23.9916C11.3274 19.1879 15.2221 15.2945 20.0245 15.2945H25.0244" stroke="black" stroke-width="2"/>
<path d="M33.0231 32.6875H38.0243C42.8267 32.6875 46.7201 28.7941 46.7201 23.9916C46.7201 19.1879 42.8267 15.2945 38.0243 15.2945H33.0231" stroke="black" stroke-width="2"/>
</g>
</g>
<defs>
<clipPath id="clip0_16008_2">
<rect width="57" height="46" fill="white"/>
</clipPath>
</defs>
</svg>
