<svg width="50" height="50" viewBox="0 0 50 50" fill="none" xmlns="http://www.w3.org/2000/svg">
<g clip-path="url(#clip0_16024_18)">
<mask id="mask0_16024_18" style="mask-type:luminance" maskUnits="userSpaceOnUse" x="0" y="0" width="50" height="50">
<path d="M0 0H50V50H0V0Z" fill="white"/>
</mask>
<g mask="url(#mask0_16024_18)">
<path d="M1.59998 0.0499878H26.6V25H1.59998V0.0499878Z" fill="#9B62FF"/>
<path d="M26.6211 25H21.524C16.2657 25 16.5 25 12.5 25C12.5 22.5139 16.2657 16 21.524 16H26.6211" fill="#FF6775"/>
<path d="M22.5099 24H38.7469" stroke="black" stroke-width="2" stroke-miterlimit="20"/>
<path d="M26.6269 32.743H21.6269C16.8249 32.743 12.9299 28.85 12.9299 24C12.9299 19.243 16.8249 15.35 21.6269 15.35H26.6269" stroke="black" stroke-width="2" stroke-miterlimit="20"/>
<path d="M34.6199 32.743H39.6209C44.4239 32.743 48.3169 28.85 48.3169 24C48.3169 19.243 44.4239 15.35 39.6209 15.35H34.6199" stroke="black" stroke-width="2" stroke-miterlimit="20"/>
</g>
</g>
<defs>
<clipPath id="clip0_16024_18">
<rect width="50" height="50" fill="white"/>
</clipPath>
</defs>
</svg>
