<svg xmlns="http://www.w3.org/2000/svg" width="22" height="22" viewBox="0 0 22 22"><defs><linearGradient id="bxv5a" x1="10.54" x2="10.54" y1="4.32" y2="21.98" gradientUnits="userSpaceOnUse"><stop offset="0" stop-color="#f5586f"/><stop offset="1" stop-color="#f2233a"/></linearGradient></defs><g><g><path fill="url(#bxv5a)" d="M0 5.591a4.701 4.701 0 0 1 4.701-4.7h11.696a4.701 4.701 0 0 1 4.701 4.7V17.3A4.701 4.701 0 0 1 16.397 22H4.701A4.701 4.701 0 0 1 0 17.299zm14.11 7.644l-1.565.327c-.835.175-1.41.941-1.344 1.791.064.893.799 1.566 1.731 1.51l.447-.029a2.08 2.08 0 0 0 1.95-2.075V4.492c0-.34-.329-.595-.646-.492L7.822 5.359c-.287.058-.493.31-.493.641v8.092a.589.589 0 0 1-.456.574L5.322 15C4.568 15.203 4 15.874 4 16.647v.043c0 .925.8 1.666 1.726 1.638l.436-.014a2.05 2.05 0 0 0 1.987-2.047V9c0-.206.121-.353.289-.386l5.702-1.148a.308.308 0 0 1 .368.301v4.977a.487.487 0 0 1-.399.49z"/></g></g></svg>