<svg xmlns="http://www.w3.org/2000/svg" width="39" height="28" viewBox="0 0 39 28"><g><g><g><path fill="#fff" fill-opacity=".31" d="M38.116 4.496a5 5 0 0 0-1.255-2.23A4.576 4.576 0 0 0 34.681 1C31.645.14 19.505.14 19.505.14S7.364.14 4.327 1a4.576 4.576 0 0 0-2.18 1.266 5 5 0 0 0-1.255 2.23C.08 7.604.08 14.088.08 14.088s0 6.484.812 9.593c.22.843.653 1.611 1.256 2.23.602.618 1.354 1.089 2.179 1.294C7.364 28 19.504 28 19.504 28s12.14 0 15.178-.795c.825-.205 1.576-.676 2.179-1.294a4.997 4.997 0 0 0 1.255-2.23c.812-3.109.812-9.593.812-9.593s0-6.484-.812-9.592z"/></g><g><path fill="#fefefe" d="M15.75 20.558V8.31l9.542 6.124z"/></g></g></g></svg>