<svg xmlns="http://www.w3.org/2000/svg" width="22" height="23" viewBox="0 0 22 23"><g><g><path fill="#1ad64b" d="M18 10.406a.987.987 0 0 1-.45-.1 18.34 18.34 0 0 0-6.351-1.83A18.324 18.324 0 0 0 4.596 9a.952.952 0 0 1-1.16-.673.946.946 0 0 1 .673-1.159 20.244 20.244 0 0 1 7.283-.575c2.457.248 4.813.928 7.004 2.019.47.233.66.802.426 1.27a.937.937 0 0 1-.822.524zm-.5 2.75a.948.948 0 0 1-1.278.403A14.007 14.007 0 0 0 10.845 12a13.924 13.924 0 0 0-5.626.458c-.504.143-1.03-.145-1.219-.648-.1-.502.192-1.026.694-1.171C6.752 10 8.887 9.856 11 10.074a16.72 16.72 0 0 1 6.099 1.806.946.946 0 0 1 .401 1.277zm-1.305 3.308c-.195.31-.497.483-.83.483a.955.955 0 0 1-.462-.12 11.307 11.307 0 0 0-4.413-1.388 11.37 11.37 0 0 0-4.613.477.946.946 0 1 1-.577-1.803 13.16 13.16 0 0 1 5.382-.557c1.827.186 3.558.73 5.148 1.62a.943.943 0 0 1 .365 1.288zM10.875.77C4.852.77 0 5.644 0 11.657c0 6.012 4.852 10.886 10.875 10.886 6.022 0 10.905-4.874 10.905-10.886C21.78 5.644 16.897.77 10.875.77z"/></g></g></svg>