<svg xmlns="http://www.w3.org/2000/svg" width="20" height="20" viewBox="0 0 20 20"><defs><linearGradient id="8cfga" x1="1.2" x2="7.29" y1="1.65" y2="25.21" gradientUnits="userSpaceOnUse"><stop offset="0" stop-color="#4e60d3"/><stop offset=".14" stop-color="#913baf"/><stop offset=".76" stop-color="#d52d88"/><stop offset="1" stop-color="#f26d4f"/></linearGradient><radialGradient id="8cfgb" cx="5.92" cy="19.95" r="18.03" gradientUnits="userSpaceOnUse"><stop offset="0" stop-color="#fed276"/><stop offset=".17" stop-color="#fdbd61" stop-opacity=".98"/><stop offset=".45" stop-color="#f6804d"/><stop offset="1" stop-color="#e83d5c" stop-opacity=".01"/></radialGradient><linearGradient id="8cfgc" x1="1.17" x2="7.27" y1="1.65" y2="25.23" gradientUnits="userSpaceOnUse"><stop offset="0" stop-color="#4e60d3"/><stop offset=".14" stop-color="#913baf"/><stop offset=".76" stop-color="#d52d88"/><stop offset="1" stop-color="#f26d4f"/></linearGradient><radialGradient id="8cfgd" cx="5.9" cy="19.97" r="18.06" gradientUnits="userSpaceOnUse"><stop offset="0" stop-color="#fed276"/><stop offset=".17" stop-color="#fdbd61" stop-opacity=".98"/><stop offset=".45" stop-color="#f6804d"/><stop offset="1" stop-color="#e83d5c" stop-opacity=".01"/></radialGradient><linearGradient id="8cfge" x1="1.2" x2="7.28" y1="1.65" y2="25.21" gradientUnits="userSpaceOnUse"><stop offset="0" stop-color="#4e60d3"/><stop offset=".14" stop-color="#913baf"/><stop offset=".76" stop-color="#d52d88"/><stop offset="1" stop-color="#f26d4f"/></linearGradient><radialGradient id="8cfgf" cx="5.91" cy="19.95" r="18.03" gradientUnits="userSpaceOnUse"><stop offset="0" stop-color="#fed276"/><stop offset=".17" stop-color="#fdbd61" stop-opacity=".98"/><stop offset=".45" stop-color="#f6804d"/><stop offset="1" stop-color="#e83d5c" stop-opacity=".01"/></radialGradient></defs><g><g><g><path fill="url(#8cfga)" d="M9.724 13.512a3.218 3.218 0 0 1-3.216-3.22c0-1.78 1.44-3.221 3.216-3.221a3.218 3.218 0 0 1 3.216 3.22c0 1.779-1.44 3.22-3.216 3.22zm0 1.74c2.736 0 4.954-2.252 4.954-4.96A4.958 4.958 0 0 0 9.724 5.33a4.965 4.965 0 0 0-4.954 4.961C4.77 13 7 15.252 9.724 15.252z"/></g><g><path fill="url(#8cfgb)" d="M9.724 13.512a3.218 3.218 0 0 1-3.216-3.22c0-1.78 1.44-3.221 3.216-3.221a3.218 3.218 0 0 1 3.216 3.22c0 1.779-1.44 3.22-3.216 3.22zm0 1.74c2.736 0 4.954-2.252 4.954-4.96A4.958 4.958 0 0 0 9.724 5.33a4.965 4.965 0 0 0-4.954 4.961C4.77 13 7 15.252 9.724 15.252z"/></g><g><path fill="url(#8cfgc)" d="M14.868 6.299c.64 0 1.132-.52 1.132-1.16C16 4.5 15.507 4 14.868 4c-.64 0-1.158.5-1.158 1.14 0 .64.518 1.159 1.158 1.159z"/></g><g><path fill="url(#8cfgd)" d="M14.868 6.299c.64 0 1.132-.52 1.132-1.16C16 4.5 15.507 4 14.868 4c-.64 0-1.158.5-1.158 1.14 0 .64.518 1.159 1.158 1.159z"/></g><g><path fill="url(#8cfge)" d="M9.718 2.37c2.576 0 2.88.01 3.898.057.94.043 1.451.2 1.791.333.45.175.772.384 1.11.722.337.339.546.66.721 1.111.132.34.29.852.333 1.794.046 1.02.056 1.325.056 3.904 0 2.58-.01 2.886-.056 3.904-.043.942-.2 1.454-.333 1.805-.175.44-.384.762-.721 1.1a2.988 2.988 0 0 1-1.11.723c-.34.177-.85.29-1.791.333-1.017.046-1.322.056-3.898.056-2.577 0-2.882-.01-3.899-.056C4.88 18.113 4.368 18 4 17.823a3.122 3.122 0 0 1-1.082-.723 3.042 3.042 0 0 1-.721-1.1c-.132-.351-.29-.863-.332-1.805-.047-1.018-.057-1.324-.057-3.904s.01-2.885.057-3.904c.042-.942.2-1.453.332-1.794.175-.45.384-.772.721-1.11A3.122 3.122 0 0 1 4 2.76c.368-.133.878-.29 1.82-.333 1.016-.046 1.322-.056 3.898-.056zm0-1.74c-2.62 0-2.95.011-3.978.058-1.027.047-1.74.21-2.342.45a4.728 4.728 0 0 0-1.709 1.114A4.572 4.572 0 0 0 .577 4C.338 4.577.175 5.28.128 6.308.081 7.338.07 7.668.07 10.291c0 2.624.011 2.953.058 3.984.047 1.028.21 1.725.449 2.345a4.736 4.736 0 0 0 1.112 1.711 4.728 4.728 0 0 0 1.709 1.114c.602.24 1.315.403 2.342.45 1.029.047 1.357.105 3.978.105 2.62 0 2.948-.058 3.977-.105 1.027-.047 1.728-.21 2.305-.45a4.565 4.565 0 0 0 1.746-1.114 4.736 4.736 0 0 0 1.113-1.711c.238-.62.401-1.317.448-2.345.047-1.03.058-1.36.058-3.984 0-2.624-.011-2.953-.058-3.983-.047-1.028-.21-1.73-.448-2.308a4.573 4.573 0 0 0-1.113-1.748A4.565 4.565 0 0 0 16 1.137c-.577-.239-1.278-.402-2.305-.449C12.666.641 12.338.63 9.718.63z"/></g><g><path fill="url(#8cfgf)" d="M9.718 2.37c2.576 0 2.88.01 3.898.057.94.043 1.451.2 1.791.333.45.175.772.384 1.11.722.337.339.546.66.721 1.111.132.34.29.852.333 1.794.046 1.02.056 1.325.056 3.904 0 2.58-.01 2.886-.056 3.904-.043.942-.2 1.454-.333 1.805-.175.44-.384.762-.721 1.1a2.988 2.988 0 0 1-1.11.723c-.34.177-.85.29-1.791.333-1.017.046-1.322.056-3.898.056-2.577 0-2.882-.01-3.899-.056C4.88 18.113 4.368 18 4 17.823a3.122 3.122 0 0 1-1.082-.723 3.042 3.042 0 0 1-.721-1.1c-.132-.351-.29-.863-.332-1.805-.047-1.018-.057-1.324-.057-3.904s.01-2.885.057-3.904c.042-.942.2-1.453.332-1.794.175-.45.384-.772.721-1.11A3.122 3.122 0 0 1 4 2.76c.368-.133.878-.29 1.82-.333 1.016-.046 1.322-.056 3.898-.056zm0-1.74c-2.62 0-2.95.011-3.978.058-1.027.047-1.74.21-2.342.45a4.728 4.728 0 0 0-1.709 1.114A4.572 4.572 0 0 0 .577 4C.338 4.577.175 5.28.128 6.308.081 7.338.07 7.668.07 10.291c0 2.624.011 2.953.058 3.984.047 1.028.21 1.725.449 2.345a4.736 4.736 0 0 0 1.112 1.711 4.728 4.728 0 0 0 1.709 1.114c.602.24 1.315.403 2.342.45 1.029.047 1.357.105 3.978.105 2.62 0 2.948-.058 3.977-.105 1.027-.047 1.728-.21 2.305-.45a4.565 4.565 0 0 0 1.746-1.114 4.736 4.736 0 0 0 1.113-1.711c.238-.62.401-1.317.448-2.345.047-1.03.058-1.36.058-3.984 0-2.624-.011-2.953-.058-3.983-.047-1.028-.21-1.73-.448-2.308a4.573 4.573 0 0 0-1.113-1.748A4.565 4.565 0 0 0 16 1.137c-.577-.239-1.278-.402-2.305-.449C12.666.641 12.338.63 9.718.63z"/></g></g></g></svg>