<?xml version="1.0" encoding="UTF-8"?><svg id="a" xmlns="http://www.w3.org/2000/svg" viewBox="0 0 23.34 16.56"><path d="M22.85,2.59c-.27-1.02-1.05-1.81-2.06-2.09-1.82-.49-9.12-.49-9.12-.49,0,0-7.3,0-9.12,.49C1.54,.77,.75,1.57,.49,2.59c-.49,1.84-.49,5.69-.49,5.69,0,0,0,3.85,.49,5.69,.27,1.02,1.05,1.81,2.06,2.09,1.82,.49,9.12,.49,9.12,.49,0,0,7.3,0,9.12-.49,1.01-.28,1.8-1.08,2.06-2.09,.49-1.85,.49-5.7,.49-5.7,0,0,0-3.85-.49-5.69Z" style="fill:red;"/><path d="M9.33,11.83l6.06-3.55-6.06-3.55v7.1Z" style="fill:#fff;"/></svg>