<?xml version="1.0" encoding="utf-8"?>
<svg width="239px" height="225px" viewBox="0 0 239 225" version="1.1" xmlns:xlink="http://www.w3.org/1999/xlink" xmlns="http://www.w3.org/2000/svg">
  <defs>
    <path d="M2.55795e-13 4.0597e-14L225 4.0597e-14L225 239L2.55795e-13 239L2.55795e-13 4.0597e-14Z" id="path_1" />
    <clipPath id="mask_1">
      <use xlink:href="#path_1" />
    </clipPath>
  </defs>
  <g id="Group-41-Copy-2" transform="matrix(9.934766E-08 1 1 -9.934766E-08 0 0)">
    <path d="M2.55795e-13 4.0597e-14L225 4.0597e-14L225 239L2.55795e-13 239L2.55795e-13 4.0597e-14Z" id="Mask" fill="#FFFFFF" fill-rule="evenodd" stroke="none" />
    <g clip-path="url(#mask_1)">
      <g id="Group-41" transform="translate(-1297.5 -313.5)">
        <path d="M383.325 702C297.776 702 219.994 661.822 152.135 582.57C118.589 543.394 96.5653 504.062 94.1669 499.709L0 329.367L373.406 94.1045L400.704 142.9C444.909 116.455 493.29 103.076 544.941 103.076C574.446 103.076 604.251 107.704 635.526 117.162C672.58 70.518 739.141 0 847.07 0C852.336 0 857.658 0.175204 862.883 0.538835C944.816 6.21148 1012.36 49.91 1063.9 130.517C1092.64 111.569 1122.29 97.9358 1153.79 89.1227C1180.35 81.7046 1207.8 77.9526 1235.4 77.9526C1314.5 77.9526 1392.44 107.175 1473.71 167.31C1486.7 176.93 1497.38 183.888 1505.89 188.893L1546.76 122.226L1885 356.977L1783.22 523.09C1772.34 540.898 1711.72 631.089 1589.23 656.51C1567.66 660.996 1545.27 663.263 1522.7 663.263C1437.85 663.267 1347.33 630.943 1253.34 567.106C1207.2 613.089 1144.2 659.994 1054.58 666.989C1046.16 667.63 1037.92 667.948 1030.02 667.948C943.331 667.948 869.131 633.303 809.094 564.881C765.221 588.15 719.218 599.509 669.228 599.512C649.115 599.512 628.67 597.463 608.461 593.423C604.621 592.659 600.794 591.813 596.944 590.891C555.355 644.632 487.527 701.025 385.742 702L383.617 702L383.325 702Z" id="Stroke-1" fill="none" fill-rule="evenodd" stroke="#000000" stroke-width="2.7" />
        <path d="M383.325 668.943C306.885 668.943 236.826 632.394 175.099 560.306C143.694 523.629 123.199 487.034 120.965 482.985L42.484 341.02L362.566 139.353L390.359 189.032C436.624 153.902 488.468 136.137 544.941 136.137C584.055 136.137 618.328 145.241 646.223 155.35C679.548 111.595 740.778 33.0541 847.07 33.0541C851.668 33.0541 856.316 33.2094 860.892 33.5268C937.668 38.8424 1000.48 82.9277 1047.6 164.556C1049.98 168.679 1052.36 172.867 1054.75 177.171C1088.84 150.067 1124.09 131.611 1161.69 121.089C1185.66 114.402 1210.46 111.007 1235.4 111.007C1307.94 111.007 1380.09 138.302 1455.97 194.447C1486.95 217.379 1506.89 227.008 1517.2 230.972L1555.81 167.978L1842.01 366.606L1757.2 505.034C1747.5 520.885 1693.49 601.188 1583.28 624.064C1563.66 628.143 1543.28 630.209 1522.7 630.209C1437.79 630.213 1345.93 594.772 1249.56 524.842C1212.54 564.782 1149.24 626.454 1052.31 634.021C1044.7 634.599 1037.21 634.893 1030.02 634.893C944.605 634.893 872.775 597.324 816.103 523.126C770.347 552.237 722.026 566.455 669.228 566.458C651.038 566.458 632.525 564.6 614.196 560.938C604.668 559.03 594.965 556.547 584.912 553.434C550.636 603.651 486.977 667.974 385.463 668.943L383.571 668.943L383.325 668.943ZM1522.99 299.592C1524.06 299.592 1524.68 299.487 1524.92 299.454L1524.17 299.543L1523.06 287.546L1522.99 299.592Z" id="Stroke-3" fill="none" fill-rule="evenodd" stroke="#000000" stroke-width="2.7" />
        <path d="M383.325 635.885C315.988 635.885 253.655 602.963 198.061 538.039C168.793 503.861 149.826 470.003 147.76 466.258L84.968 352.669L351.724 184.599L382.011 238.73C429.444 192.556 484.097 169.191 544.942 169.191C590.992 169.191 630.083 183.64 656.093 194.394C659.628 190.06 663.894 184.659 668.985 177.971C700.826 136.13 754.121 66.1148 847.07 66.1148C851.003 66.1148 854.98 66.2503 858.897 66.5181C925.014 71.0899 979.589 109.903 1021.13 181.859C1030.45 197.991 1038.59 213.366 1045.95 227.703C1074.84 199.921 1115.72 168.13 1169.59 153.062C1190.97 147.095 1213.12 144.067 1235.4 144.067C1301.39 144.067 1367.73 169.426 1438.23 221.59C1497.63 265.543 1522.74 266.535 1522.99 266.538L1522.98 266.538C1521.84 266.538 1521.24 266.634 1521.12 266.647L1521.53 266.601L1523.05 281.94L1564.86 213.723L1799.03 376.239L1731.18 486.982C1722.67 500.879 1675.25 571.298 1577.34 591.618C1559.66 595.294 1541.28 597.149 1522.7 597.149C1442.37 597.152 1354.27 562.111 1260.86 492.985C1254.72 488.446 1249.55 484.945 1245.27 482.248C1241.58 486.195 1238.11 489.993 1235.89 492.423C1201.27 530.326 1143.34 593.773 1050.04 601.053C1043.22 601.568 1036.5 601.833 1030.02 601.833C924.063 601.833 862.274 538.386 823.41 478.367C775.678 515.335 724.94 533.394 669.222 533.397C652.958 533.397 636.375 531.731 619.931 528.445C602.139 524.892 586.04 519.56 572.193 514.257C543.885 563.271 485.396 634.927 385.186 635.885L383.518 635.885L383.325 635.885Z" id="Stroke-5" fill="none" fill-rule="evenodd" stroke="#000000" stroke-width="2.7" />
        <path d="M383.325 602.828C325.093 602.828 270.487 573.542 221.025 515.775C193.92 484.125 176.454 452.972 174.556 449.528L127.452 364.325L340.885 229.851L376.198 292.968C423.861 232.727 480.468 202.248 544.941 202.248C590.439 202.248 629.735 218.817 653.219 228.714C656.003 229.891 660.417 231.749 664.375 233.342C669.439 228.248 678.29 218.261 693.128 198.771C723.315 159.105 768.937 99.1721 847.07 99.1721C850.338 99.1721 853.65 99.2845 856.903 99.5027C912.357 103.341 958.7 136.874 994.66 199.167C1008.27 222.737 1019.45 244.935 1029.32 264.525C1032.64 271.13 1035.6 276.902 1038.23 281.953C1067.68 249.755 1111.5 203.491 1177.49 185.035C1196.29 179.783 1215.78 177.125 1235.4 177.125C1294.83 177.125 1355.37 200.546 1420.49 248.73C1484.28 295.923 1515.04 299.596 1522.95 299.596C1523.75 299.596 1524.15 299.546 1524.19 299.543C1523.92 299.579 1521.85 299.893 1518.58 301.606L1531.31 328.98L1573.91 259.474L1756.04 385.872L1705.16 468.929C1697.84 480.869 1657 541.401 1571.39 559.179C1555.68 562.435 1539.3 564.091 1522.7 564.091C1448.83 564.094 1366.7 531.04 1278.6 465.845C1257.96 450.579 1245.57 444.777 1239.65 442.612C1232.5 448.691 1220.12 462.258 1213.61 469.388C1180.03 506.158 1129.29 561.718 1047.77 568.078C1041.75 568.544 1035.78 568.775 1030.02 568.775C922.687 568.775 867.186 494.995 830.965 429.293C781.059 477.025 727.839 500.337 669.218 500.34C654.878 500.34 640.221 498.869 625.666 495.96C600.399 490.909 578.065 481.487 561.761 474.618C560.972 474.281 560.062 473.897 559.064 473.481C556.595 477.398 553.743 482.261 550.54 488.277C527.939 530.683 476.364 601.952 384.906 602.828L383.446 602.828L383.325 602.828Z" id="Stroke-7" fill="none" fill-rule="evenodd" stroke="#000000" stroke-width="2.7" />
        <path d="M383.325 569.77C334.199 569.77 287.319 544.111 243.987 493.514C219.068 464.407 203.081 435.944 201.345 432.787L169.933 375.972L330.045 275.094L361.755 331.774C365.692 338.812 370.128 345.331 374.505 351.063C421.323 274.224 478.57 235.306 544.941 235.306C584.508 235.306 618.974 249.838 641.774 259.448C650.42 263.094 661.076 267.586 665.826 268.532C667.271 268.826 668.265 268.882 668.846 268.882C679.738 268.882 707.987 231.775 717.27 219.574C745.329 182.708 783.765 132.23 847.07 132.23C849.68 132.23 852.317 132.315 854.908 132.497C899.701 135.591 937.81 163.846 968.191 216.466C981.316 239.2 992.271 260.948 1001.93 280.142C1015.86 307.794 1025.93 326.028 1031.98 334.57C1039.55 327.946 1050.88 315.543 1057.65 308.128C1086.32 276.73 1125.58 233.739 1185.38 217.009C1201.61 212.476 1218.43 210.182 1235.4 210.182C1288.28 210.182 1343.02 231.669 1402.75 275.87C1469.53 325.271 1506.72 332.653 1522.95 332.653C1524.79 332.653 1526.52 332.544 1528.06 332.342C1530.98 331.949 1532.26 331.281 1532.27 331.275C1532.22 331.304 1530.91 332.015 1528.74 334.471L1551.27 356.911L1582.96 305.222L1713.05 395.505L1679.13 450.876C1673.01 460.873 1638.76 511.507 1565.44 526.726C1551.68 529.589 1537.3 531.034 1522.7 531.034C1455.29 531.037 1379.13 499.98 1296.33 438.711C1259.29 411.3 1241.98 408.341 1236.25 408.341C1226.75 408.341 1212.29 423.392 1191.33 446.347C1159.21 481.517 1115.24 529.669 1045.5 535.113C1040.26 535.516 1035.06 535.718 1030.02 535.718C919.559 535.718 872.439 442.952 838.117 374.785C802.576 417.026 747.995 467.279 669.218 467.283C656.789 467.283 644.067 465.997 631.404 463.471C609.057 458.998 589.162 450.609 573.172 443.868C566.222 440.936 555.554 436.443 549.014 434.553C544.643 438.731 535.755 449.005 523.518 471.964C504.216 508.178 460.505 569.043 384.627 569.77L383.372 569.77L383.325 569.77Z" id="Stroke-9" fill="none" fill-rule="evenodd" stroke="#000000" stroke-width="2.7" />
        <path d="M383.325 536.713C343.302 536.713 304.151 514.687 266.952 471.246C243.776 444.179 228.752 417.171 228.124 416.034L212.42 387.624L319.206 320.343L335.06 348.679C349.037 373.664 369.886 395.846 380.641 402.642C382.514 400.312 385.171 396.484 388.405 390.418C432.184 308.29 483.385 268.366 544.941 268.366C578.575 268.366 608.492 280.975 630.332 290.181C641.69 294.968 652.386 299.483 660.085 301.024C663.139 301.635 666.081 301.943 668.846 301.943C690.577 301.943 710.332 281.213 741.412 240.383C768.207 205.181 798.575 165.284 847.07 165.284C848.993 165.284 850.935 165.35 852.898 165.485C904.336 169.042 932.476 217.759 941.719 233.772C954.363 255.663 965.087 276.958 974.55 295.751C1007.21 360.623 1016.29 370.408 1030.55 370.408C1031.68 370.408 1032.89 370.358 1034.16 370.259C1044.99 369.416 1063.55 349.093 1079.93 331.162C1107.51 300.958 1141.84 263.371 1193.28 248.982C1206.92 245.17 1221.09 243.236 1235.4 243.236C1281.72 243.236 1330.66 262.786 1385.02 303.007C1455.06 354.828 1498.69 365.711 1522.95 365.711C1526.1 365.711 1529.12 365.512 1531.92 365.139C1545.81 363.278 1551.2 357.317 1551.42 357.066C1550.87 357.694 1550.61 358.14 1550.56 358.216L1575.53 377.853L1592.01 350.967L1670.07 405.141L1653.1 432.827C1648.18 440.867 1620.51 481.613 1559.49 494.281C1547.68 496.737 1535.3 497.98 1522.7 497.98C1461.76 497.986 1391.57 468.912 1314.07 411.568C1281.53 387.495 1255.35 375.284 1236.25 375.284C1213.99 375.284 1197.06 392.639 1169.05 423.313C1138.81 456.42 1101.19 497.619 1043.23 502.138C1038.77 502.485 1034.33 502.664 1030.02 502.664C937.751 502.664 899.166 426.03 865.123 358.421C858.189 344.646 851.115 330.6 843.417 316.498C841.323 319.209 839.453 321.665 838.036 323.526C806.488 364.977 753.786 434.222 669.218 434.225C658.718 434.225 647.922 433.134 637.133 430.979C617.744 427.101 600.144 419.683 584.62 413.138C569.953 406.956 554.926 400.622 545.221 400.622C543.982 400.622 542.866 400.735 541.916 400.946C538.821 401.637 522.157 407.512 496.496 455.656C480.493 485.682 444.642 536.138 384.347 536.713L383.325 536.713ZM1600.53 397.508C1601.55 396.037 1601.96 395.151 1601.96 395.151L1581.9 382.861L1600.53 397.508Z" id="Stroke-11" fill="none" fill-rule="evenodd" stroke="#000000" stroke-width="2.7" />
        <path d="M383.325 503.656C352.411 503.656 320.986 485.269 289.916 448.979C269.08 424.649 255.469 400.298 254.901 399.277L308.364 365.588C324.634 394.672 359.649 437.541 383.322 437.541C383.397 437.541 383.468 437.541 383.54 437.538C396.398 437.395 407.98 420.705 415.427 406.731C490.108 266.624 567.617 299.308 618.915 320.928C631.68 326.313 643.744 331.394 654.344 333.509C699.586 342.574 728.973 309.245 765.551 261.186C791.069 227.67 815.224 196.04 850.916 198.477C882.62 200.668 902.817 229.544 915.253 251.081C927.431 272.171 937.935 293.034 947.208 311.444C982.646 381.826 998.413 406.183 1036.42 403.227C1059.04 401.469 1079.04 379.565 1102.21 354.197C1128.4 325.513 1158.1 293.001 1201.18 280.958C1249.81 267.362 1304.15 283.444 1367.28 330.151C1452.77 393.396 1506.12 401.928 1535.82 397.938C1563.9 394.17 1575.06 378.563 1575.51 377.902C1575.19 378.381 1575.04 378.656 1575.04 378.656L1627.08 414.771C1624.79 418.5 1603.31 451.508 1553.54 461.838C1492.86 474.443 1418.25 448.387 1331.81 384.431C1230.01 309.116 1195.1 347.35 1146.77 400.279C1118.82 430.877 1087.14 465.57 1040.96 469.167C959.287 475.537 926.838 410.996 892.437 342.673C883.142 324.21 873.527 305.113 862.312 285.689C854.483 272.135 849.18 266.922 846.853 265.074C839.08 269.633 824.031 289.404 813.832 302.799C779.667 347.688 728.016 415.502 642.867 398.494C626.402 395.194 610.962 388.689 596.031 382.388C574.25 373.211 553.681 364.524 535.51 368.603C514.17 373.373 491.951 397.171 469.471 439.349C441.358 492.092 407.511 503.434 384.068 503.652C383.819 503.656 383.574 503.656 383.325 503.656Z" id="Stroke-13" fill="none" fill-rule="evenodd" stroke="#000000" stroke-width="2.7" />
        <path d="M281.645 382.454C281.645 382.454 374.746 550.055 442.45 423.035C520.795 276.059 586.231 353.525 648.607 365.998C785.702 393.419 813.976 138.844 888.782 268.383C941.357 359.419 959.593 442.364 1038.69 436.202C1137.2 428.526 1159.88 216.959 1349.54 357.29C1539.21 497.622 1601.06 396.711 1601.06 396.711" id="Stroke-15" fill="none" fill-rule="evenodd" stroke="#000000" stroke-width="2.7" />
      </g>
    </g>
  </g>
</svg>