<?xml version="1.0" encoding="utf-8"?>
<svg width="265px" height="188px" viewBox="0 0 265 188" version="1.1" xmlns:xlink="http://www.w3.org/1999/xlink" xmlns="http://www.w3.org/2000/svg">
  <defs>
    <path d="M0 -4.7899e-13L188 -4.7899e-13L188 265L0 265L0 -4.7899e-13Z" id="path_1" />
    <clipPath id="mask_1">
      <use xlink:href="#path_1" />
    </clipPath>
  </defs>
  <g id="Group-41-Copy-2" transform="matrix(9.934766E-08 1 1 -9.934766E-08 0 0)">
    <path d="M0 -4.7899e-13L188 -4.7899e-13L188 265L0 265L0 -4.7899e-13Z" id="Mask" fill="#FFFFFF" fill-rule="evenodd" stroke="none" />
    <g clip-path="url(#mask_1)">
      <g id="Group-41" transform="translate(-1084 -347)">
        <path d="M320.285 778C248.805 778 183.815 733.472 127.115 645.641C99.086 602.223 80.6845 558.633 78.6806 553.808L0 365.025L311.997 104.292L334.806 158.371C371.741 129.062 412.165 114.235 455.322 114.235C479.975 114.235 504.878 119.365 531.01 129.846C561.97 78.1524 617.584 0 707.764 0C712.164 0 716.611 0.194172 720.977 0.597171C789.435 6.88395 845.873 55.3134 888.939 144.647C912.953 123.647 937.721 108.539 964.045 98.7713C986.234 90.5501 1009.17 86.3919 1032.23 86.3919C1098.32 86.3919 1163.45 118.778 1231.35 185.423C1242.21 196.085 1251.13 203.796 1258.24 209.343L1292.38 135.459L1575 395.624L1489.96 579.721C1480.86 599.457 1430.22 699.412 1327.87 727.585C1309.85 732.556 1291.14 735.07 1272.29 735.07C1201.39 735.073 1125.76 699.25 1047.22 628.502C1008.67 679.463 956.027 731.446 881.152 739.199C874.115 739.909 867.225 740.261 860.624 740.261C788.194 740.261 726.197 701.866 676.034 626.037C639.376 651.825 600.938 664.413 559.169 664.417C542.364 664.417 525.281 662.145 508.396 657.668C505.187 656.822 501.989 655.884 498.773 654.862C464.023 714.421 407.35 776.919 322.305 778L320.529 778L320.285 778Z" id="Stroke-1" fill="none" fill-rule="evenodd" stroke="#000000" stroke-width="3" />
        <path d="M320.285 741.364C256.416 741.364 197.879 700.859 146.303 620.966C120.062 580.318 102.938 539.762 101.072 535.274L35.4972 377.94L302.94 154.44L326.162 209.497C364.818 170.564 408.136 150.875 455.322 150.875C488.003 150.875 516.64 160.965 539.947 172.168C567.792 123.677 618.952 36.6326 707.764 36.6326C711.606 36.6326 715.489 36.8048 719.313 37.1565C783.462 43.0476 835.944 91.9057 875.316 182.372C877.307 186.94 879.291 191.582 881.287 196.352C909.773 166.314 939.224 145.86 970.644 134.199C990.673 126.787 1011.39 123.025 1032.23 123.025C1092.84 123.025 1153.13 153.275 1216.52 215.498C1242.41 240.913 1259.07 251.585 1267.68 255.977L1299.94 186.163L1539.08 406.296L1468.22 559.71C1460.12 577.277 1414.99 666.274 1322.9 691.626C1306.51 696.147 1289.47 698.437 1272.29 698.437C1201.34 698.441 1124.59 659.163 1044.06 581.663C1013.13 625.927 960.237 694.275 879.254 702.661C872.889 703.302 866.636 703.628 860.624 703.628C789.259 703.628 729.242 661.991 681.89 579.761C643.659 612.023 603.284 627.78 559.169 627.784C543.971 627.784 528.503 625.725 513.188 621.666C505.226 619.552 497.12 616.801 488.72 613.349C460.08 669.003 406.89 740.29 322.071 741.364L320.49 741.364L320.285 741.364ZM1272.52 332.027C1273.41 332.027 1273.93 331.91 1274.13 331.873L1273.51 331.972L1272.58 318.677L1272.52 332.027Z" id="Stroke-3" fill="none" fill-rule="evenodd" stroke="#000000" stroke-width="3" />
        <path d="M320.285 704.728C264.022 704.728 211.94 668.241 165.488 596.288C141.034 558.41 125.186 520.887 123.46 516.736L70.9945 390.85L293.881 204.584L319.187 264.576C358.819 213.402 404.484 187.508 455.322 187.508C493.8 187.508 526.462 203.522 548.194 215.439C551.148 210.636 554.712 204.65 558.967 197.239C585.571 150.868 630.101 73.2725 707.764 73.2725C711.05 73.2725 714.373 73.4227 717.646 73.7195C772.89 78.7862 818.49 121.801 853.2 201.547C860.982 219.425 867.789 236.465 873.935 252.354C898.076 221.565 932.234 186.332 977.242 169.633C995.111 163.02 1013.61 159.664 1032.23 159.664C1087.37 159.664 1142.8 187.768 1201.7 245.58C1251.34 294.292 1272.31 295.391 1272.52 295.394L1272.52 295.394C1271.56 295.394 1271.07 295.501 1270.96 295.515L1271.31 295.464L1272.57 312.463L1307.51 236.861L1503.16 416.972L1446.47 539.703C1439.37 555.105 1399.74 633.148 1317.93 655.668C1303.17 659.742 1287.81 661.797 1272.29 661.797C1205.16 661.801 1131.55 622.966 1053.51 546.356C1048.38 541.326 1044.05 537.446 1040.48 534.457C1037.39 538.831 1034.5 543.041 1032.64 545.734C1003.72 587.741 955.308 658.057 877.354 666.124C871.656 666.695 866.039 666.989 860.624 666.989C772.095 666.989 720.468 596.673 687.995 530.156C648.113 571.126 605.719 591.141 559.164 591.144C545.575 591.144 531.719 589.298 517.979 585.656C503.113 581.718 489.662 575.808 478.093 569.932C454.44 624.252 405.569 703.665 321.84 704.728L320.446 704.728L320.285 704.728Z" id="Stroke-5" fill="none" fill-rule="evenodd" stroke="#000000" stroke-width="3" />
        <path d="M320.285 668.091C271.63 668.091 226.004 635.635 184.676 571.613C162.028 536.538 147.435 502.012 145.849 498.194L106.492 403.768L284.824 254.735L314.33 324.685C354.155 257.923 401.452 224.144 455.322 224.144C493.338 224.144 526.172 242.506 545.793 253.475C548.119 254.779 551.807 256.838 555.114 258.604C559.346 252.959 566.741 241.891 579.138 220.29C604.362 176.33 642.48 109.909 707.764 109.909C710.495 109.909 713.262 110.033 715.98 110.275C762.314 114.529 801.036 151.692 831.082 220.73C842.454 246.851 851.796 271.453 860.043 293.163C862.818 300.483 865.291 306.88 867.49 312.478C892.093 276.794 928.706 225.522 983.841 205.068C999.553 199.246 1015.83 196.301 1032.23 196.301C1081.89 196.301 1132.47 222.257 1186.88 275.658C1240.18 327.96 1265.88 332.031 1272.49 332.031C1273.16 332.031 1273.5 331.976 1273.53 331.972C1273.3 332.012 1271.57 332.36 1268.84 334.258L1279.47 364.597L1315.07 287.565L1467.25 427.648L1424.73 519.696C1418.62 532.929 1384.5 600.014 1312.96 619.717C1299.83 623.325 1286.15 625.161 1272.29 625.161C1210.56 625.165 1141.94 588.532 1068.33 516.278C1051.08 499.359 1040.73 492.93 1035.78 490.53C1029.81 497.267 1019.47 512.303 1014.02 520.205C985.966 560.956 943.57 622.53 875.457 629.579C870.426 630.096 865.439 630.352 860.624 630.352C770.945 630.352 724.572 548.584 694.308 475.769C652.609 528.668 608.141 554.504 559.161 554.508C547.179 554.508 534.932 552.878 522.771 549.654C501.66 544.056 482.999 533.614 469.376 526.001C468.717 525.628 467.956 525.203 467.123 524.741C465.059 529.082 462.676 534.471 460 541.139C441.116 588.136 398.023 667.12 321.606 668.091L320.386 668.091L320.285 668.091Z" id="Stroke-7" fill="none" fill-rule="evenodd" stroke="#000000" stroke-width="3" />
        <path d="M320.285 631.455C279.238 631.455 240.068 603.018 203.862 546.943C183.041 514.684 169.683 483.141 168.232 479.642L141.986 416.675L275.767 304.876L302.263 367.692C305.551 375.492 309.258 382.717 312.916 389.07C352.034 303.912 399.866 260.78 455.322 260.78C488.382 260.78 517.18 276.886 536.23 287.536C543.454 291.577 552.358 296.556 556.327 297.604C557.534 297.93 558.364 297.992 558.85 297.992C567.951 297.992 591.554 256.868 599.31 243.345C622.755 202.489 654.87 146.545 707.764 146.545C709.945 146.545 712.148 146.64 714.313 146.842C751.739 150.271 783.582 181.584 808.966 239.901C819.933 265.096 829.086 289.199 837.158 310.47C848.795 341.116 857.208 361.325 862.265 370.792C868.588 363.45 878.052 349.704 883.711 341.486C907.668 306.689 940.473 259.044 990.439 240.502C1004 235.479 1018.06 232.937 1032.23 232.937C1076.41 232.937 1122.15 256.75 1172.06 305.737C1227.86 360.486 1258.93 368.667 1272.49 368.667C1274.03 368.667 1275.47 368.546 1276.76 368.323C1279.2 367.887 1280.27 367.146 1280.28 367.139C1280.23 367.172 1279.14 367.96 1277.33 370.682L1296.15 395.551L1322.63 338.266L1431.33 438.323L1402.99 499.689C1397.87 510.768 1369.26 566.884 1307.99 583.751C1296.5 586.924 1284.48 588.525 1272.29 588.525C1215.96 588.528 1152.33 554.109 1083.14 486.207C1052.19 455.828 1037.73 452.549 1032.94 452.549C1025 452.549 1012.92 469.23 995.407 494.67C968.575 533.647 931.832 587.012 873.562 593.046C869.183 593.493 864.835 593.716 860.624 593.716C768.331 593.716 728.961 490.907 700.283 415.36C670.588 462.174 624.982 517.868 559.161 517.872C548.776 517.872 538.146 516.447 527.565 513.647C508.894 508.691 492.271 499.392 478.91 491.922C473.104 488.673 464.19 483.694 458.726 481.598C455.073 486.229 447.647 497.615 437.422 523.059C421.294 563.194 384.772 630.649 321.373 631.455L320.324 631.455L320.285 631.455Z" id="Stroke-9" fill="none" fill-rule="evenodd" stroke="#000000" stroke-width="3" />
        <path d="M320.285 594.819C286.844 594.819 254.132 570.408 223.05 522.264C203.685 492.267 191.132 462.335 190.608 461.075L177.486 429.589L266.711 355.024L279.957 386.428C291.635 414.118 309.056 438.701 318.042 446.233C319.607 443.65 321.827 439.408 324.529 432.685C361.109 341.666 403.89 297.42 455.322 297.42C483.424 297.42 508.422 311.393 526.67 321.597C536.16 326.902 545.097 331.906 551.53 333.613C554.081 334.291 556.54 334.632 558.85 334.632C577.007 334.632 593.514 311.657 619.482 266.408C641.87 227.394 667.244 183.178 707.764 183.178C709.371 183.178 710.993 183.251 712.634 183.401C755.612 187.343 779.125 241.334 786.847 259.081C797.412 283.341 806.373 306.942 814.279 327.77C841.571 399.665 849.151 410.509 861.068 410.509C862.01 410.509 863.023 410.454 864.084 410.344C873.136 409.41 888.646 386.886 902.328 367.015C925.373 333.54 954.054 291.885 997.037 275.937C1008.44 271.713 1020.27 269.57 1032.23 269.57C1070.94 269.57 1111.83 291.236 1157.24 335.811C1215.77 393.242 1252.22 405.303 1272.49 405.303C1275.12 405.303 1277.64 405.083 1279.99 404.669C1291.59 402.607 1296.1 396.001 1296.28 395.723C1295.82 396.419 1295.6 396.913 1295.56 396.998L1316.42 418.76L1330.19 388.963L1395.41 449.003L1381.24 479.686C1377.13 488.596 1354.01 533.753 1303.02 547.792C1293.16 550.515 1282.81 551.892 1272.29 551.892C1221.37 551.899 1162.72 519.678 1097.96 456.125C1070.77 429.446 1048.9 415.913 1032.94 415.913C1014.34 415.913 1000.19 435.147 976.79 469.142C951.528 505.833 920.094 551.493 871.661 556.501C867.939 556.886 864.227 557.083 860.624 557.083C783.532 557.083 751.293 472.153 722.848 397.225C717.055 381.958 711.144 366.392 704.712 350.763C702.962 353.767 701.399 356.489 700.216 358.552C673.856 404.49 629.821 481.232 559.161 481.235C550.388 481.235 541.367 480.026 532.352 477.638C516.152 473.34 501.447 465.119 488.476 457.865C476.221 451.014 463.665 443.995 455.556 443.995C454.52 443.995 453.588 444.119 452.794 444.354C450.209 445.119 436.285 451.63 414.844 504.987C401.473 538.263 371.518 594.181 321.139 594.819L320.285 594.819ZM1337.31 440.544C1338.16 438.913 1338.51 437.931 1338.51 437.931L1321.75 424.31L1337.31 440.544Z" id="Stroke-11" fill="none" fill-rule="evenodd" stroke="#000000" stroke-width="3" />
        <path d="M320.285 558.182C294.454 558.182 268.198 537.805 242.238 497.586C224.828 470.622 213.456 443.636 212.981 442.504L257.652 405.168C271.246 437.4 300.503 484.91 320.282 484.91C320.345 484.91 320.404 484.91 320.464 484.906C331.208 484.749 340.885 466.251 347.107 450.765C409.507 295.49 474.269 331.712 517.13 355.672C527.797 361.64 537.876 367.271 546.733 369.616C584.535 379.661 609.088 342.725 639.651 289.463C660.973 252.317 681.155 217.264 710.978 219.964C737.468 222.393 754.343 254.395 764.734 278.263C774.909 301.637 783.685 324.758 791.434 345.161C821.044 423.163 834.217 450.157 865.974 446.882C884.874 444.933 901.588 420.657 920.942 392.543C942.83 360.753 967.64 324.722 1003.64 311.375C1044.27 296.307 1089.68 314.13 1142.42 365.893C1213.85 435.986 1258.43 445.442 1283.24 441.02C1306.71 436.843 1316.03 419.547 1316.41 418.815C1316.14 419.346 1316.01 419.65 1316.01 419.65L1359.5 459.675C1357.59 463.808 1339.64 500.389 1298.05 511.838C1247.35 525.807 1185.01 496.93 1112.78 426.05C1027.73 342.582 998.556 384.955 958.174 443.614C934.822 477.524 908.353 515.974 869.767 519.96C801.526 527.02 774.413 455.491 745.67 379.771C737.904 359.31 729.87 338.145 720.499 316.618C713.958 301.597 709.527 295.819 707.583 293.771C701.088 298.824 688.514 320.736 679.992 335.581C651.446 385.329 608.289 460.485 537.144 441.635C523.386 437.979 510.485 430.769 498.01 423.786C479.811 413.616 462.624 403.988 447.442 408.509C429.611 413.795 411.046 440.17 392.263 486.914C368.774 545.367 340.493 557.937 320.905 558.179C320.698 558.182 320.493 558.182 320.285 558.182Z" id="Stroke-13" fill="none" fill-rule="evenodd" stroke="#000000" stroke-width="3" />
        <path d="M235.327 423.859C235.327 423.859 313.117 609.605 369.687 468.834C435.147 305.945 489.822 391.799 541.94 405.621C656.489 436.011 680.113 153.876 742.616 297.438C786.545 398.331 801.782 490.255 867.87 483.426C950.182 474.919 969.129 240.447 1127.6 395.971C1286.08 551.496 1337.75 439.66 1337.75 439.66" id="Stroke-15" fill="none" fill-rule="evenodd" stroke="#000000" stroke-width="3" />
      </g>
    </g>
  </g>
</svg>