<svg xmlns="http://www.w3.org/2000/svg" width="30" height="22" viewBox="0 0 30 22"><g><g><g><path fill="#fff" fill-opacity=".31" d="M29.297 3.85a3.808 3.808 0 0 0-.96-1.7 3.72 3.72 0 0 0-1.666-.986C24.348.53 15.064.53 15.064.53s-9.284 0-11.606.634a3.721 3.721 0 0 0-1.667.987 3.816 3.816 0 0 0-.96 1.699C.21 6.22.21 11.162.21 11.162s0 4.942.621 7.313c.169.642.5 1.228.96 1.699.461.471 1.036.826 1.667.986 2.322.634 11.606.634 11.606.634s9.284 0 11.607-.634a3.592 3.592 0 0 0 1.666-.986 3.808 3.808 0 0 0 .96-1.7c.621-2.37.621-7.312.621-7.312s0-4.942-.62-7.312z"/></g><g><path fill="#fefefe" d="M12.2 16.096V6.76l7.297 4.668z"/></g></g></g></svg>